Coordinates
version=1
nRows=8
nColumns=34
inDegrees=yes

Units are S.I. units (second, meters, Newtons, ...)
If the header above contains a line with 'inDegrees', this indicates whether rotational values are in degrees (yes) or radians (no).

endheader
time	pelvis_tilt	pelvis_list	pelvis_rotation	pelvis_tx	pelvis_ty	pelvis_tz	hip_flexion_r	hip_adduction_r	hip_rotation_r	knee_angle_r	ankle_angle_r	subtalar_angle_r	mtp_angle_r	hip_flexion_l	hip_adduction_l	hip_rotation_l	knee_angle_l	ankle_angle_l	subtalar_angle_l	mtp_angle_l	lumbar_extension	lumbar_bending	lumbar_rotation	arm_flex_r	arm_add_r	arm_rot_r	elbow_flex_r	pro_sup_r	arm_flex_l	arm_add_l	arm_rot_l	elbow_flex_l	pro_sup_l
     12.48333330	      7.99204899	     -7.51508351	    -62.34575406	      5.21706296	      1.12487709	     13.45807812	     -5.87674198	      3.04223808	     11.42659069	     54.88562650	    -16.20621590	     28.94935757	      0.00000000	      2.66410907	     18.60475531	      6.52609004	      0.68536341	     -8.09844229	     -9.55345822	      0.00000000	     -7.94713737	     10.40484962	     14.17240286	      5.94594124	    -10.51220586	     27.18574403	     26.03161774	    119.74817918	     26.09193738	    -21.39230617	     16.31947561	     87.17075836	    119.74817918
     12.50000000	      8.30674943	     -7.31062935	    -60.97541216	      5.22584137	      1.12656069	     13.47448153	     -5.26611985	      2.41474206	     10.55681017	     53.72878704	    -22.46720412	     31.08556788	      0.00000000	      2.56297483	     19.16899058	      7.94057258	      3.38691034	     -5.97411319	    -10.63309597	      0.00000000	     -8.19373437	     10.16596357	     13.02855889	      5.93305922	    -10.49682925	     23.68975669	     25.74641900	    119.74817918	     26.29111519	    -21.93437932	     16.49378297	     87.34850970	    119.74817918
     12.51666670	      8.74182234	     -7.42014986	    -61.33140929	      5.23308916	      1.12856545	     13.49414885	     -4.63386787	      1.43135538	     10.39894086	     53.14462092	    -27.02027262	     33.55026109	      0.00000000	      1.81208806	     19.54066986	      8.05070357	      5.17870804	     -3.71398184	    -11.73268160	      0.00000000	     -8.62902240	      9.64543121	     13.13707065	      6.06170103	    -10.93412405	     22.63837623	     25.64869812	    119.74817918	     25.92850351	    -23.00430190	     16.82176194	     88.43958809	    119.74817918
     12.53333330	      8.76749575	     -7.84264297	    -60.62082221	      5.24069899	      1.13090953	     13.51319167	     -3.74103131	      1.68517348	      9.65341320	     53.50712049	    -26.54480255	     35.00000000	      0.00000000	      1.56376100	     19.27048156	      7.02476814	      8.56147965	      0.31136828	     -9.56655785	      0.00000000	     -8.89533590	      9.89815568	     12.11465875	      5.67573172	    -10.65784017	     17.41698683	     26.46310861	    119.74817918	     25.50911814	    -24.16391923	     17.03121444	     89.01098416	    119.74817918
     12.55000000	      8.58831490	     -8.40478493	    -61.06595989	      5.24559437	      1.13295627	     13.53253782	     -2.59012003	      2.43550173	     10.69516972	     54.07445082	    -24.47405820	     35.00000000	      0.00000000	      1.19247041	     18.55523178	      5.38051229	     11.18240365	      3.79552162	     -8.06155567	      0.00000000	     -9.35504003	     10.16274771	     12.35891837	      5.65653002	    -10.74857514	     14.52954103	     27.36076857	    119.74817918	     25.53759416	    -24.76766143	     17.77257434	     89.39052528	    119.74817918
     12.56666670	      8.70138664	     -8.89854283	    -60.89553603	      5.25094209	      1.13450829	     13.55267228	     -2.17655228	      2.78955573	     11.33720309	     53.91595143	    -19.83117326	     35.00000000	      0.00000000	      0.04091344	     18.27273809	      6.12078683	     12.89998944	      6.01178528	     -8.58100486	      0.00000000	     -9.84270763	      9.92164849	     12.04269859	      6.10705084	    -10.95284754	     13.68624162	     27.38413164	    119.74817918	     25.64773645	    -25.53515284	     18.46413307	     89.82374676	    119.74817918
     12.58333330	      8.81566808	     -9.78731746	    -60.57250799	      5.25717387	      1.13707907	     13.57286294	     -2.59090260	      3.37819443	     12.50370459	     52.91976107	    -13.08411980	     35.00000000	      0.00000000	     -1.92536549	     17.75031461	      7.07784789	     13.97218577	      8.23701589	     -8.58465612	      0.00000000	    -10.57535892	     10.12774585	     11.78278553	      6.18557728	    -10.76987436	     10.24853201	     28.10388508	    119.74817918	     25.43745371	    -25.73553111	     19.00323571	     89.36030128	    119.74817918
     12.60000000	      8.76995564	     -9.93872741	    -60.39334396	      5.26413692	      1.13842270	     13.59183491	     -1.86329168	      3.75650645	     13.93018000	     52.39840730	     -6.74996674	     35.00000000	      0.00000000	     -3.38380298	     17.53872629	      8.00564125	     14.30209916	      9.79730672	     -8.83529514	      0.00000000	    -10.55581882	     10.39747251	     11.61027753	      6.37455074	    -11.14998979	      9.64584380	     28.61466769	    119.74817918	     24.94257852	    -25.74157916	     19.35869787	     88.66442820	    119.74817918
